<?xml version="1.0" encoding="UTF-8" standalone="no"?>
<!DOCTYPE svg PUBLIC "-//W3C//DTD SVG 1.1//EN"
 "http://www.w3.org/Graphics/SVG/1.1/DTD/svg11.dtd">
<!-- Generated by graphviz version 2.38.0 (20140413.2041)
 -->
<!-- Title: %3 Pages: 1 -->
<svg width="165pt" height="188pt"
 viewBox="0.00 0.00 165.11 188.00" xmlns="http://www.w3.org/2000/svg" xmlns:xlink="http://www.w3.org/1999/xlink">
<g id="graph0" class="graph" transform="scale(1 1) rotate(0) translate(4 184)">
<title>%3</title>
<polygon fill="white" stroke="none" points="-4,4 -4,-184 161.108,-184 161.108,4 -4,4"/>
<!-- [root] aws_eip.ip -->
<g id="node1" class="node"><title>[root] aws_eip.ip</title>
<polygon fill="none" stroke="black" points="116.82,-180 40.2881,-180 40.2881,-144 116.82,-144 116.82,-180"/>
<text text-anchor="middle" x="78.5542" y="-157.8" font-family="Times,serif" font-size="14.00">aws_eip.ip</text>
</g>
<!-- [root] aws_instance.example -->
<g id="node2" class="node"><title>[root] aws_instance.example</title>
<polygon fill="none" stroke="black" points="149.117,-108 7.99098,-108 7.99098,-72 149.117,-72 149.117,-108"/>
<text text-anchor="middle" x="78.5542" y="-85.8" font-family="Times,serif" font-size="14.00">aws_instance.example</text>
</g>
<!-- [root] aws_eip.ip&#45;&gt;[root] aws_instance.example -->
<g id="edge1" class="edge"><title>[root] aws_eip.ip&#45;&gt;[root] aws_instance.example</title>
<path fill="none" stroke="black" d="M78.5542,-143.697C78.5542,-135.983 78.5542,-126.712 78.5542,-118.112"/>
<polygon fill="black" stroke="black" points="82.0542,-118.104 78.5542,-108.104 75.0542,-118.104 82.0542,-118.104"/>
</g>
<!-- [root] provider.aws -->
<g id="node3" class="node"><title>[root] provider.aws</title>
<polygon fill="none" stroke="black" points="78.5542,-36 -0.0541874,-18 78.5542,-3.55271e-15 157.162,-18 78.5542,-36"/>
<text text-anchor="middle" x="78.5542" y="-13.8" font-family="Times,serif" font-size="14.00">provider.aws</text>
</g>
<!-- [root] aws_instance.example&#45;&gt;[root] provider.aws -->
<g id="edge2" class="edge"><title>[root] aws_instance.example&#45;&gt;[root] provider.aws</title>
<path fill="none" stroke="black" d="M78.5542,-71.6966C78.5542,-63.9827 78.5542,-54.7125 78.5542,-46.1124"/>
<polygon fill="black" stroke="black" points="82.0542,-46.1043 78.5542,-36.1043 75.0542,-46.1044 82.0542,-46.1043"/>
</g>
</g>
</svg>
